{"asset":{"version":"2.0","generator":"Blockbench 4.11.1 glTF exporter"},"scenes":[{"nodes":[2],"name":"blockbench_export"}],"scene":0,"nodes":[{"rotation":[-0.0870727897926938,-0.04345340242735787,-0.003801680104023675,0.9952465414778342],"translation":[0,-0.375,-0.6875],"name":"cube","mesh":0},{"rotation":[0.11126793830287414,0.0849658430807617,0.022187527859992937,0.9899030078865633],"translation":[0,0.375,1.375],"name":"Body","children":[0]},{"children":[1]}],"bufferViews":[{"buffer":0,"byteOffset":0,"byteLength":8640,"target":34962,"byteStride":12},{"buffer":0,"byteOffset":8640,"byteLength":8640,"target":34962,"byteStride":12},{"buffer":0,"byteOffset":17280,"byteLength":5760,"target":34962,"byteStride":8},{"buffer":0,"byteOffset":23040,"byteLength":2160,"target":34963}],"buffers":[{"byteLength":25200,"uri":"data:application/octet-stream;base64,"}],"accessors":[{"bufferView":0,"componentType":5126,"count":720,"max":[0.16875000298023224,0.65625,1.4095349311828613],"min":[-0.10625000298023224,-0.8535640835762024,-3.4375],"type":"VEC3"},{"bufferView":1,"componentType":5126,"count":720,"max":[1,1,1],"min":[-1,-1,-1],"type":"VEC3"},{"bufferView":2,"componentType":5126,"count":720,"max":[0.4921875,0.5390625],"min":[0,0],"type":"VEC2"},{"bufferView":3,"componentType":5123,"count":1080,"max":[719],"min":[0],"type":"SCALAR"}],"materials":[{"pbrMetallicRoughness":{"metallicFactor":0,"roughnessFactor":1,"baseColorTexture":{"index":0}},"alphaMode":"MASK","alphaCutoff":0.05,"doubleSided":true}],"textures":[{"sampler":0,"source":0,"name":"texture ak56.png"}],"samplers":[{"magFilter":9728,"minFilter":9728,"wrapS":33071,"wrapT":33071}],"images":[{"mimeType":"image/png","uri":"data:image/png;base64,"}],"meshes":[{"primitives":[{"mode":4,"attributes":{"POSITION":0,"NORMAL":1,"TEXCOORD_0":2},"indices":3,"material":0}]}]}