{"asset":{"version":"2.0","generator":"Blockbench 4.11.1 glTF exporter"},"scenes":[{"nodes":[7],"name":"blockbench_export"}],"scene":0,"nodes":[{"rotation":[-0.06993622875535807,0.39662806267288764,0.1589421703467142,0.9014058410579033],"translation":[0.75,0.9375,-1],"name":"cube","mesh":0},{"name":"cube","mesh":1},{"rotation":[0,0,0.02181488503456112,0.9997620270799091],"translation":[0.9375,0.75,-0.125],"name":"cube","mesh":2},{"rotation":[0.23768589232617307,0,0,0.9713420698132614],"translation":[0,0,-1.25],"name":"cube","mesh":3},{"rotation":[0,0.6755902076156601,0,0.7372773368101241],"translation":[0,0.125,-0.125],"name":"bone","children":[3]},{"rotation":[0.10382818392130547,0.2972060382044594,0.04574438446753596,0.9480483797613384],"name":"Body2"},{"translation":[0,0.375,1.375],"name":"Body3","children":[5]},{"children":[0,1,2,4,6]}],"bufferViews":[{"buffer":0,"byteOffset":0,"byteLength":10080,"target":34962,"byteStride":12},{"buffer":0,"byteOffset":10080,"byteLength":10080,"target":34962,"byteStride":12},{"buffer":0,"byteOffset":20160,"byteLength":6720,"target":34962,"byteStride":8},{"buffer":0,"byteOffset":26880,"byteLength":360,"target":34963},{"buffer":0,"byteOffset":27240,"byteLength":2160,"target":34963},{"buffer":0,"byteOffset":29400,"byteLength":288,"target":34962,"byteStride":12},{"buffer":0,"byteOffset":29688,"byteLength":288,"target":34962,"byteStride":12},{"buffer":0,"byteOffset":29976,"byteLength":192,"target":34962,"byteStride":8},{"buffer":0,"byteOffset":30168,"byteLength":72,"target":34963},{"buffer":0,"byteOffset":30240,"byteLength":8544,"target":34962,"byteStride":12},{"buffer":0,"byteOffset":38784,"byteLength":8544,"target":34962,"byteStride":12},{"buffer":0,"byteOffset":47328,"byteLength":5696,"target":34962,"byteStride":8},{"buffer":0,"byteOffset":53024,"byteLength":2052,"target":34963},{"buffer":0,"byteOffset":55076,"byteLength":2880,"target":34962,"byteStride":12},{"buffer":0,"byteOffset":57956,"byteLength":2880,"target":34962,"byteStride":12},{"buffer":0,"byteOffset":60836,"byteLength":1920,"target":34962,"byteStride":8},{"buffer":0,"byteOffset":62756,"byteLength":720,"target":34963}],"buffers":[{"byteLength":63476,"uri":"data:application/octet-stream;base64,"}],"accessors":[{"bufferView":0,"componentType":5126,"count":840,"max":[-0.3584271967411041,1.0994395017623901,0.9850714206695557],"min":[-1.0516799688339233,0.19378302991390228,0.14714831113815308],"type":"VEC3"},{"bufferView":1,"componentType":5126,"count":840,"max":[1,1,1],"min":[-1,-1,-1],"type":"VEC3"},{"bufferView":2,"componentType":5126,"count":840,"max":[0.4921875,0.5390625],"min":[0,0],"type":"VEC2"},{"bufferView":3,"componentType":5123,"count":180,"max":[119],"min":[0],"type":"SCALAR"},{"bufferView":4,"componentType":5123,"count":1080,"max":[839],"min":[120],"type":"SCALAR"},{"bufferView":5,"componentType":5126,"count":24,"max":[1.375,1.9375,0.0625],"min":[-1.5,0,-0.0625],"type":"VEC3"},{"bufferView":6,"componentType":5126,"count":24,"max":[1,1,1],"min":[-1,-1,-1],"type":"VEC3"},{"bufferView":7,"componentType":5126,"count":24,"max":[0.71875,0.515625],"min":[0,0],"type":"VEC2"},{"bufferView":8,"componentType":5123,"count":36,"max":[23],"min":[0],"type":"SCALAR"},{"bufferView":9,"componentType":5126,"count":712,"max":[0.34375,-0.01875000074505806,0.15312500298023224],"min":[-1.2000000476837158,-0.6681591868400574,-0.15312500298023224],"type":"VEC3"},{"bufferView":10,"componentType":5126,"count":712,"max":[1,1,1],"min":[-1,-1,-1],"type":"VEC3"},{"bufferView":11,"componentType":5126,"count":712,"max":[0.828125,0.828125],"min":[0,0],"type":"VEC2"},{"bufferView":12,"componentType":5123,"count":1026,"max":[711],"min":[0],"type":"SCALAR"},{"bufferView":13,"componentType":5126,"count":240,"max":[0.0625,0.7036303877830505,0.49271440505981445],"min":[-0.1875,0.1875,-0.07960141450166702],"type":"VEC3"},{"bufferView":14,"componentType":5126,"count":240,"max":[1,1,1],"min":[-1,-1,-1],"type":"VEC3"},{"bufferView":15,"componentType":5126,"count":240,"max":[0.78125,0.78125],"min":[0,0],"type":"VEC2"},{"bufferView":16,"componentType":5123,"count":360,"max":[239],"min":[0],"type":"SCALAR"}],"materials":[{"pbrMetallicRoughness":{"metallicFactor":0,"roughnessFactor":1},"alphaMode":"MASK","alphaCutoff":0.05,"doubleSided":true},{"pbrMetallicRoughness":{"metallicFactor":0,"roughnessFactor":1,"baseColorTexture":{"index":0}},"alphaMode":"MASK","alphaCutoff":0.05,"doubleSided":true},{"pbrMetallicRoughness":{"metallicFactor":0,"roughnessFactor":1,"baseColorTexture":{"index":1}},"alphaMode":"MASK","alphaCutoff":0.05,"doubleSided":true},{"pbrMetallicRoughness":{"metallicFactor":0,"roughnessFactor":1,"baseColorTexture":{"index":2}},"alphaMode":"MASK","alphaCutoff":0.05,"doubleSided":true},{"pbrMetallicRoughness":{"metallicFactor":0,"roughnessFactor":1,"baseColorTexture":{"index":3}},"alphaMode":"MASK","alphaCutoff":0.05,"doubleSided":true}],"textures":[{"sampler":0,"source":0,"name":"texture ak56.png"},{"sampler":1,"source":1,"name":"texture.png"},{"sampler":2,"source":2,"name":"texture"},{"sampler":3,"source":3,"name":"Pew pew"}],"samplers":[{"magFilter":9728,"minFilter":9728,"wrapS":33071,"wrapT":33071},{"magFilter":9728,"minFilter":9728,"wrapS":33071,"wrapT":33071},{"magFilter":9728,"minFilter":9728,"wrapS":33071,"wrapT":33071},{"magFilter":9728,"minFilter":9728,"wrapS":33071,"wrapT":33071}],"images":[{"mimeType":"image/png","uri":"data:image/png;base64,"},{"mimeType":"image/png","uri":"data:image/png;base64,"},{"mimeType":"image/png","uri":"data:image/png;base64,"},{"mimeType":"image/png","uri":"data:image/png;base64,"}],"meshes":[{"primitives":[{"mode":4,"attributes":{"POSITION":0,"NORMAL":1,"TEXCOORD_0":2},"indices":3,"material":0},{"mode":4,"attributes":{"POSITION":0,"NORMAL":1,"TEXCOORD_0":2},"indices":4,"material":1}]},{"primitives":[{"mode":4,"attributes":{"POSITION":5,"NORMAL":6,"TEXCOORD_0":7},"indices":8,"material":2}]},{"primitives":[{"mode":4,"attributes":{"POSITION":9,"NORMAL":10,"TEXCOORD_0":11},"indices":12,"material":3}]},{"primitives":[{"mode":4,"attributes":{"POSITION":13,"NORMAL":14,"TEXCOORD_0":15},"indices":16,"material":4}]}]}